<svg version="1.1" viewBox="0.0 0.0 2048.0 2048.0" fill="none" stroke="none" stroke-linecap="square" stroke-miterlimit="10" xmlns:xlink="http://www.w3.org/1999/xlink" xmlns="http://www.w3.org/2000/svg"><clipPath id="p.0"><path d="m0 0l2048.0 0l0 2048.0l-2048.0 0l0 -2048.0z" clip-rule="nonzero"/></clipPath><g clip-path="url(#p.0)"><path fill="#000000" fill-opacity="0.0" d="m0 0l2048.0 0l0 2048.0l-2048.0 0z" fill-rule="evenodd"/><defs><radialGradient id="p.1" gradientUnits="userSpaceOnUse" gradientTransform="matrix(33.38795557424596 0.0 0.0 33.38795557424596 0.0 0.0)" spreadMethod="pad" cx="30.670802389526138" cy="30.667434246994183" fx="30.670802389526138" fy="30.667434246994183" r="33.38795471191406"><stop offset="0.0" stop-color="#d4e5f5"/><stop offset="1.0" stop-color="#3d85c6"/></radialGradient></defs><path fill="url(#p.1)" d="m1253.1718 488.00195c41.328003 0 72.50427 8.037811 93.52869 24.113464c21.144531 16.075562 31.716797 38.11261 31.716797 66.11096c0 27.998352 -12.013916 59.479797 -36.04187 94.444275c-24.027954 34.964478 -56.34546 68.12042 -96.95264 99.467896c-40.607178 31.213501 -91.726685 57.336365 -153.35828 78.36865c-61.63159 20.898315 -125.66608 31.347473 -192.10327 31.347473l-15.497986 0l-1.0812988 -20.898315c0 -51.0401 16.759521 -105.362305 50.278442 -162.96661c33.6391 -57.60431 79.59253 -106.96985 137.86029 -148.09668c58.387817 -41.26071 118.93823 -61.891113 181.65112 -61.891113zm-189.21997 -187.48193c-121.821594 23.041748 -222.07812 75.68939 -300.7696 157.943c-78.57129 82.2536 -117.85693 164.97607 -117.85693 248.16736c0 51.843872 17.540344 95.04712 52.621155 129.60974c35.08075 34.56256 86.92102 54.72406 155.52075 60.484497c20.664001 79.842224 84.157776 119.76337 190.48132 119.76337c47.93579 0 101.39795 -13.999207 160.38647 -41.99756c59.108643 -27.998352 105.66284 -54.924988 139.66235 -80.77997c33.99951 -25.988953 62.052124 -49.633484 84.157715 -70.933716l-6.6677246 -10.047241c-69.32056 64.30249 -136.83899 112.12744 -202.55542 143.47491c-65.71631 31.213501 -122.18201 46.82025 -169.39685 46.82025c-92.26727 0 -146.51031 -35.031433 -162.72913 -105.09436l6.487549 0c73.16504 0 142.36548 -11.052002 207.60132 -33.156006c65.35596 -22.237915 119.05835 -50.236267 161.10718 -83.99512c42.169067 -33.75879 75.38757 -69.32611 99.65588 -106.701904c24.388306 -37.509766 36.58252 -72.34027 36.58252 -104.491516c0 -32.151245 -11.293213 -57.470337 -33.879395 -75.95734c-22.466187 -18.486969 -59.709473 -27.730438 -111.72986 -27.730438c-52.020508 0 -104.6416 12.123688 -157.86353 36.371094c-53.101685 24.247406 -97.37317 55.125946 -132.81433 92.63577c-35.441223 37.375793 -63.493835 78.10071 -84.15784 122.17468c-20.664001 44.073975 -30.996033 86.67438 -30.996033 127.80121c0 8.305725 0.7809448 19.826538 2.3427734 34.56256c-61.992065 -7.367981 -108.486145 -26.85968 -139.48212 -58.475037c-30.996033 -31.74939 -46.49408 -71.5365 -46.49408 -119.36151c0 -80.645996 38.56482 -160.68921 115.69446 -240.12958c77.12964 -79.44034 173.2414 -128.20306 288.33514 -146.28815l-3.2437744 -14.669006zm710.7461 314.6803c0.7208252 0 0.7208252 0.40185547 0 1.2056885c-11.052856 9.913269 -44.451782 38.380493 -100.19653 85.40173c-55.74475 46.887207 -98.57446 84.329956 -128.48926 112.32837c-29.794678 27.86444 -67.57861 65.30719 -113.35181 112.32837c-88.662964 88.81781 -154.3794 179.71204 -197.14905 272.68274c-46.49414 -10.58313 -96.29199 -16.343506 -149.39368 -17.28125l210.30444 -198.73492c1.4416504 -0.803772 29.254028 -26.926636 83.43701 -78.36865c54.3031 -51.441956 95.87134 -89.68854 124.704834 -114.739685c28.833618 -25.18518 68.65979 -56.06378 119.47888 -92.6358c50.93921 -36.705994 95.6311 -62.828857 134.0758 -78.36865c6.607666 -2.545288 11.052856 -3.8179321 13.335571 -3.8179321zm-514.8584 614.89246c30.275146 10.717163 58.688232 24.314331 85.23901 40.79187c-23.547363 13.932251 -67.458374 42.33252 -131.73303 85.200806c5.886841 -37.91162 21.384766 -79.90918 46.49402 -125.992676zm-220.39612 -33.356934c-149.81415 133.2937 -274.87952 227.53711 -375.1961 282.72998c-11.89386 -13.932251 -17.84076 -31.213501 -17.84076 -51.843872c0 -52.647583 37.843994 -103.88867 113.53192 -153.72314c75.68799 -49.83435 168.85626 -75.55542 279.50494 -77.162964zm537.02405 5.0236816c81.9353 0 122.902954 25.921875 122.902954 77.76575c0 36.170166 -21.625244 74.41687 -64.87549 114.739746c-43.130127 40.322998 -93.82898 72.40723 -152.0968 96.25281c5.1660156 -17.28125 7.7490234 -35.76819 7.7490234 -55.460815c0 -64.97241 -28.773438 -119.29468 -86.32031 -162.96667c71.60327 -46.887207 129.15015 -70.33081 172.64062 -70.33081zm-201.47412 90.02344c57.546875 46.083496 86.32031 99.20007 86.32031 159.34961c0 13.932251 -2.5830078 30.811646 -7.7490234 50.638184c-40.607178 12.324707 -75.267456 18.486938 -103.980835 18.486938c-80.49353 0 -125.90625 -38.313477 -136.23828 -114.940674c25.829956 -17.28125 79.71265 -55.125977 161.64783 -113.53406zm-305.63525 -95.04712c59.108765 2.545288 111.18921 10.382202 156.24158 23.51062c-20.66394 51.843872 -32.13733 102.01318 -34.41992 150.50806c-76.04846 51.04004 -142.6659 89.95642 -199.8523 116.749146c-57.186462 26.792725 -116.05487 40.189087 -176.60529 40.189087c-60.550354 0 -105.903076 -11.520874 -136.0581 -34.562622c111.369446 -59.345825 241.60077 -158.14392 390.69403 -296.3943zm790.57886 -635.7908c-1.4416504 0 -6.607666 0.803772 -15.497925 2.411377c-112.931274 25.587036 -286.77332 149.50323 -521.52625 371.74872c-132.87439 124.18414 -221.77771 206.43768 -266.70996 246.7608c-132.15356 0.9376221 -236.43475 26.32373 -312.84357 76.1582c-76.40881 49.70044 -114.61322 103.75476 -114.61322 162.16284c0 24.783325 7.7490234 46.619263 23.24701 65.50818c-91.54639 47.69104 -172.22018 71.5365 -242.0213 71.5365c-69.681 0 -120.01947 -15.204834 -151.0155 -45.614624c-30.996033 -30.409668 -46.494034 -69.52698 -46.494034 -117.35205c0 -68.32129 27.451889 -132.08801 82.3557 -191.2998c55.023956 -59.345947 123.86395 -89.0188 206.52005 -89.0188c35.441223 0 61.81183 7.234009 79.11194 21.702148c17.420227 14.468018 26.130371 32.75403 26.130371 54.858032c0 33.75879 -16.819519 66.914795 -50.45862 99.467896c-33.518982 32.5531 -74.60675 51.70996 -123.263275 57.470337l0 13.463379c52.38089 -5.760498 99.055145 -27.730469 140.02274 -65.91016c40.96759 -38.313477 61.451416 -76.426025 61.451416 -114.33777c0 -24.649292 -10.512207 -44.34192 -31.536682 -59.07788c-21.024414 -14.869995 -52.981567 -22.304932 -95.8714 -22.304932c-96.71243 0 -176.06464 31.682373 -238.05667 95.04712c-61.992065 63.364746 -92.98808 132.08801 -92.98808 206.1698c0 51.04004 16.939682 92.97058 50.81906 125.79175c33.999527 32.954956 83.8575 49.432495 149.57384 49.432495c90.10474 0 186.45673 -25.52002 289.05597 -76.56018c30.996033 27.998413 78.21088 41.99756 141.64459 41.99756c128.42932 0 256.85858 -40.724854 385.28778 -122.17468c11.052856 77.43091 60.91089 116.14636 149.57385 116.14636c30.275269 0 65.71643 -6.229248 106.32361 -18.687866l0 0c-33.278687 88.14795 -124.10425 161.02405 -272.47668 218.62842l0 12.25769c78.21094 -23.041748 143.32654 -55.996826 195.34705 -98.86511c52.140625 -42.734375 87.40161 -89.62158 105.78296 -140.66174c64.995605 -23.845459 121.10071 -57.73816 168.31567 -101.67822c47.214844 -44.074097 70.822266 -87.94714 70.822266 -131.61914c0 -27.194702 -10.332031 -48.762817 -30.996094 -64.704346c-20.66394 -16.075684 -52.020386 -24.113525 -94.069336 -24.113525c-63.433716 0 -135.03687 22.237915 -214.80957 66.71387c-27.992554 -16.47754 -62.652832 -31.347412 -103.980835 -44.609863c60.550293 -105.29529 151.67627 -220.90576 273.3777 -346.83148c121.82153 -125.92572 228.86597 -218.09259 321.13318 -276.50067c3.7243652 -3.34906 5.586548 -7.1000366 5.586548 -11.25293c0 -8.171753 -4.084717 -12.25769 -12.254272 -12.25769z" fill-rule="evenodd"/></g></svg>